<svg xmlns="http://www.w3.org/2000/svg" xmlns:xlink="http://www.w3.org/1999/xlink" version="1.1" id="Layer_1" x="0px" y="0px" width="93.8px" height="100px" viewBox="0 0 93.8 100" enable-background="new 0 0 93.8 100" xml:space="preserve">
<g>
	<path d="M93.8,79.789c0-1.709-1.634-4.373-4.187-8.486c-18.22-30.758-5.4-39.216-17.247-53.03   c-2.018-2.355-5.136-6.151-11.504-8.96C60.549,5.276,55.875,0,46.9,0c-8.806,0-13.895,5.147-14.207,9.184   c-5.786,2.135-9.203,6.16-11.408,9.089C10.867,32.087,22.149,42.086,3.977,71.408C1.634,75.271,0,78.08,0,79.789   c0,9.036,18.02,13.983,33.924,15.402C36.561,97.625,40.973,100,46.9,100s10.106-2.338,12.955-4.884   C75.603,93.594,93.8,88.654,93.8,79.789z M63.242,85.097c0.064-2.144,0.444-4.631-0.272-7.384c-0.571-2.196-7.618-4.03-16.07-4.03   c-7.696,0-15.598,1.543-16.01,4.03c-0.472,2.845-0.473,5.242-0.282,7.438c-10.729-1.343-18.989-4.235-18.989-8.468   c0-6.158,13.62-11.822,35.281-11.822c21.692,0,35.168,5.418,35.168,11.822C82.068,80.98,73.716,83.768,63.242,85.097z"/>
</g>
</svg>